<svg width="23" height="20" viewBox="0 0 23 20" fill="none" xmlns="http://www.w3.org/2000/svg">
<path d="M1.5 1H7.5C8.56087 1 9.57828 1.42143 10.3284 2.17157C11.0786 2.92172 11.5 3.93913 11.5 5V19C11.5 18.2044 11.1839 17.4413 10.6213 16.8787C10.0587 16.3161 9.29565 16 8.5 16H1.5V1Z" stroke="white" stroke-width="2" stroke-linecap="round" stroke-linejoin="round"/>
<path d="M21.5 1H15.5C14.4391 1 13.4217 1.42143 12.6716 2.17157C11.9214 2.92172 11.5 3.93913 11.5 5V19C11.5 18.2044 11.8161 17.4413 12.3787 16.8787C12.9413 16.3161 13.7044 16 14.5 16H21.5V1Z" stroke="white" stroke-width="2" stroke-linecap="round" stroke-linejoin="round"/>
</svg>
