<svg width="48" height="48" viewBox="0 0 48 48" fill="none" xmlns="http://www.w3.org/2000/svg">
<g filter="url(#filter0_dd_60_7)">
<path d="M34.4694 9.53152C32.3757 7.43402 29.2969 6.59902 25.8082 7.18027C22.4444 7.74152 19.0744 9.56652 16.3207 12.3203C13.5669 15.074 11.7419 18.4453 11.1807 21.8078C10.5994 25.2965 11.4307 28.3715 13.5319 30.469C15.1932 32.1315 17.4694 33.0003 20.0782 33.0003C20.7869 32.9982 21.4943 32.938 22.1932 32.8203C25.5569 32.259 28.9269 30.434 31.6807 27.6803C34.4344 24.9265 36.2594 21.5553 36.8207 18.1928C37.4019 14.704 36.5669 11.6253 34.4694 9.53152ZM17.7344 13.734C20.8207 10.649 24.6256 8.99152 27.8944 8.99152C29.1524 8.97234 30.3962 9.25843 31.5194 9.82527C30.1185 10.314 28.8073 11.0293 27.6382 11.9428C25.2382 13.8378 23.6844 16.4828 23.0207 19.804C21.8057 25.8765 17.4332 27.9515 14.5857 28.659C11.5894 25.0953 12.9257 18.544 17.7344 13.734ZM30.2669 26.2665C25.9307 30.6015 20.1782 32.114 16.4769 30.1753C17.8793 29.6865 19.1921 28.9712 20.3632 28.0578C22.7632 26.1628 24.3169 23.5178 24.9807 20.1965C26.1957 14.124 30.5682 12.049 33.4157 11.3415C36.4119 14.9053 35.0757 21.4565 30.2669 26.2665Z" fill="black"/>
</g>
<defs>
<filter id="filter0_dd_60_7" x="0" y="0" width="48.0009" height="48.0002" filterUnits="userSpaceOnUse" color-interpolation-filters="sRGB">
<feFlood flood-opacity="0" result="BackgroundImageFix"/>
<feColorMatrix in="SourceAlpha" type="matrix" values="0 0 0 0 0 0 0 0 0 0 0 0 0 0 0 0 0 0 127 0" result="hardAlpha"/>
<feOffset dy="1"/>
<feGaussianBlur stdDeviation="1.5"/>
<feColorMatrix type="matrix" values="0 0 0 0 0 0 0 0 0 0 0 0 0 0 0 0 0 0 0.3 0"/>
<feBlend mode="normal" in2="BackgroundImageFix" result="effect1_dropShadow_60_7"/>
<feColorMatrix in="SourceAlpha" type="matrix" values="0 0 0 0 0 0 0 0 0 0 0 0 0 0 0 0 0 0 127 0" result="hardAlpha"/>
<feMorphology radius="3" operator="dilate" in="SourceAlpha" result="effect2_dropShadow_60_7"/>
<feOffset dy="4"/>
<feGaussianBlur stdDeviation="4"/>
<feColorMatrix type="matrix" values="0 0 0 0 0 0 0 0 0 0 0 0 0 0 0 0 0 0 0.15 0"/>
<feBlend mode="normal" in2="effect1_dropShadow_60_7" result="effect2_dropShadow_60_7"/>
<feBlend mode="normal" in="SourceGraphic" in2="effect2_dropShadow_60_7" result="shape"/>
</filter>
</defs>
</svg>
