<svg width="48" height="48" viewBox="0 0 48 48" fill="none" xmlns="http://www.w3.org/2000/svg">
<g filter="url(#filter0_dd_60_6)">
<path d="M28.5613 24.4387C28.7705 24.6487 28.9129 24.916 28.9703 25.2068C29.0278 25.4977 28.9978 25.799 28.8841 26.0728C28.7704 26.3466 28.5781 26.5805 28.3316 26.7451C28.085 26.9097 27.7952 26.9976 27.4988 26.9976C27.2023 26.9976 26.9125 26.9097 26.6659 26.7451C26.4194 26.5805 26.2271 26.3466 26.1134 26.0728C25.9998 25.799 25.9697 25.4977 26.0272 25.2068C26.0847 24.916 26.227 24.6487 26.4363 24.4387C26.5756 24.2989 26.7412 24.188 26.9235 24.1122C27.1059 24.0365 27.3013 23.9976 27.4988 23.9976C27.6962 23.9976 27.8917 24.0365 28.074 24.1122C28.2563 24.188 28.4219 24.2989 28.5613 24.4387ZM18.4363 23.4387C18.227 23.6487 18.0847 23.916 18.0272 24.2068C17.9697 24.4977 17.9998 24.799 18.1134 25.0728C18.2271 25.3466 18.4194 25.5805 18.6659 25.7451C18.9125 25.9097 19.2023 25.9976 19.4988 25.9976C19.7952 25.9976 20.085 25.9097 20.3316 25.7451C20.5781 25.5805 20.7704 25.3466 20.8841 25.0728C20.9978 24.799 21.0278 24.4977 20.9703 24.2068C20.9129 23.916 20.7705 23.6487 20.5613 23.4387C20.4219 23.2993 20.2565 23.1886 20.0744 23.1132C19.8923 23.0377 19.6971 22.9988 19.5 22.9988C19.3029 22.9988 19.1077 23.0377 18.9256 23.1132C18.7435 23.1886 18.5781 23.2993 18.4388 23.4387H18.4363ZM19.5613 18.5638C19.7705 18.3538 19.9129 18.0865 19.9703 17.7957C20.0278 17.5048 19.9978 17.2035 19.8841 16.9297C19.7704 16.6559 19.5781 16.422 19.3316 16.2574C19.085 16.0928 18.7952 16.0049 18.4988 16.0049C18.2023 16.0049 17.9125 16.0928 17.6659 16.2574C17.4194 16.422 17.2271 16.6559 17.1134 16.9297C16.9998 17.2035 16.9697 17.5048 17.0272 17.7957C17.0847 18.0865 17.227 18.3538 17.4363 18.5638C17.5758 18.7034 17.7415 18.8142 17.9239 18.8897C18.1063 18.9652 18.3019 19.0039 18.4993 19.0037C18.6967 19.0035 18.8921 18.9642 19.0744 18.8883C19.2566 18.8124 19.4221 18.7013 19.5613 18.5612V18.5638ZM25.5613 18.4388C25.3513 18.2295 25.084 18.0871 24.7932 18.0297C24.5023 17.9722 24.201 18.0022 23.9272 18.1159C23.6534 18.2296 23.4195 18.4219 23.2549 18.6684C23.0903 18.915 23.0024 19.2048 23.0024 19.5013C23.0024 19.7977 23.0903 20.0875 23.2549 20.3341C23.4195 20.5806 23.6534 20.7729 23.9272 20.8866C24.201 21.0003 24.5023 21.0303 24.7932 20.9728C25.084 20.9154 25.3513 20.773 25.5613 20.5637C25.7011 20.4244 25.812 20.2588 25.8878 20.0765C25.9635 19.8941 26.0024 19.6987 26.0024 19.5013C26.0024 19.3038 25.9635 19.1083 25.8878 18.926C25.812 18.7437 25.7011 18.5781 25.5613 18.4388ZM37 20C37 22.5712 36.2376 25.0846 34.8091 27.2224C33.3807 29.3603 31.3503 31.0265 28.9749 32.0104C26.5995 32.9944 23.9856 33.2518 21.4638 32.7502C18.9421 32.2486 16.6257 31.0105 14.8076 29.1924C12.9895 27.3743 11.7514 25.0579 11.2498 22.5362C10.7482 20.0144 11.0056 17.4006 11.9896 15.0251C12.9735 12.6497 14.6398 10.6194 16.7776 9.1909C18.9154 7.76244 21.4288 7 24 7C24.2652 7 24.5196 7.10536 24.7071 7.29289C24.8946 7.48043 25 7.73478 25 8C25 9.32608 25.5268 10.5979 26.4645 11.5355C27.4022 12.4732 28.6739 13 30 13C30.2652 13 30.5196 13.1054 30.7071 13.2929C30.8946 13.4804 31 13.7348 31 14C31 15.3261 31.5268 16.5979 32.4645 17.5355C33.4022 18.4732 34.6739 19 36 19C36.2652 19 36.5196 19.1054 36.7071 19.2929C36.8946 19.4804 37 19.7348 37 20ZM34.9613 20.9237C33.4636 20.6964 32.0797 19.9905 31.0164 18.9115C29.9532 17.8325 29.2677 16.4384 29.0625 14.9375C27.5616 14.7323 26.1675 14.0468 25.0885 12.9836C24.0095 11.9203 23.3036 10.5364 23.0763 9.03875C20.9868 9.21486 18.9912 9.98453 17.3246 11.2571C15.658 12.5296 14.3898 14.252 13.6695 16.2212C12.9492 18.1905 12.8068 20.3246 13.259 22.3722C13.7112 24.4197 14.7392 26.2953 16.2219 27.7781C17.7047 29.2608 19.5803 30.2888 21.6278 30.741C23.6754 31.1933 25.8095 31.0508 27.7788 30.3305C29.7481 29.6102 31.4704 28.342 32.743 26.6754C34.0155 25.0088 34.7851 23.0132 34.9613 20.9237Z" fill="black"/>
</g>
<defs>
<filter id="filter0_dd_60_6" x="0" y="0" width="48" height="48" filterUnits="userSpaceOnUse" color-interpolation-filters="sRGB">
<feFlood flood-opacity="0" result="BackgroundImageFix"/>
<feColorMatrix in="SourceAlpha" type="matrix" values="0 0 0 0 0 0 0 0 0 0 0 0 0 0 0 0 0 0 127 0" result="hardAlpha"/>
<feOffset dy="1"/>
<feGaussianBlur stdDeviation="1.5"/>
<feColorMatrix type="matrix" values="0 0 0 0 0 0 0 0 0 0 0 0 0 0 0 0 0 0 0.3 0"/>
<feBlend mode="normal" in2="BackgroundImageFix" result="effect1_dropShadow_60_6"/>
<feColorMatrix in="SourceAlpha" type="matrix" values="0 0 0 0 0 0 0 0 0 0 0 0 0 0 0 0 0 0 127 0" result="hardAlpha"/>
<feMorphology radius="3" operator="dilate" in="SourceAlpha" result="effect2_dropShadow_60_6"/>
<feOffset dy="4"/>
<feGaussianBlur stdDeviation="4"/>
<feColorMatrix type="matrix" values="0 0 0 0 0 0 0 0 0 0 0 0 0 0 0 0 0 0 0.15 0"/>
<feBlend mode="normal" in2="effect1_dropShadow_60_6" result="effect2_dropShadow_60_6"/>
<feBlend mode="normal" in="SourceGraphic" in2="effect2_dropShadow_60_6" result="shape"/>
</filter>
</defs>
</svg>
