<svg width="28" height="27" viewBox="0 0 28 27" fill="none" xmlns="http://www.w3.org/2000/svg">
<path d="M15.0001 13.823V21.2118C15.0001 21.4918 14.8947 21.7603 14.7072 21.9582C14.5196 22.1562 14.2653 22.2674 14.0001 22.2674C13.7348 22.2674 13.4805 22.1562 13.293 21.9582C13.1054 21.7603 13.0001 21.4918 13.0001 21.2118V13.823C13.0001 13.543 13.1054 13.2745 13.293 13.0766C13.4805 12.8786 13.7348 12.7674 14.0001 12.7674C14.2653 12.7674 14.5196 12.8786 14.7072 13.0766C14.8947 13.2745 15.0001 13.543 15.0001 13.823ZM19.6051 13.7174L18.9051 21.1063C18.8912 21.2446 18.9034 21.3845 18.941 21.5178C18.9785 21.6512 19.0407 21.7754 19.1239 21.8833C19.207 21.9912 19.3096 22.0807 19.4256 22.1466C19.5417 22.2125 19.6689 22.2536 19.8001 22.2674C19.8338 22.2694 19.8676 22.2694 19.9013 22.2674C20.149 22.2671 20.3878 22.1697 20.5714 21.9942C20.7549 21.8187 20.8703 21.5775 20.8951 21.3174L21.5951 13.9285C21.6216 13.65 21.5422 13.3717 21.3743 13.1549C21.2065 12.9382 20.964 12.8007 20.7001 12.7727C20.4362 12.7447 20.1726 12.8285 19.9672 13.0057C19.7619 13.1828 19.6316 13.4389 19.6051 13.7174ZM8.39507 13.7174C8.36855 13.4389 8.23828 13.1828 8.03293 13.0057C7.82758 12.8285 7.56396 12.7447 7.30007 12.7727C7.03618 12.8007 6.79363 12.9382 6.62579 13.1549C6.45794 13.3717 6.37855 13.65 6.40507 13.9285L7.10507 21.3174C7.12994 21.5787 7.24618 21.8208 7.43109 21.9965C7.616 22.1721 7.8563 22.2687 8.10507 22.2674C8.13879 22.2694 8.17259 22.2694 8.20632 22.2674C8.33698 22.2535 8.46378 22.2127 8.57948 22.1471C8.69517 22.0815 8.79749 21.9925 8.8806 21.8851C8.96371 21.7778 9.02598 21.6543 9.06385 21.5215C9.10172 21.3888 9.11445 21.2495 9.10132 21.1116L8.39507 13.7174ZM27.9913 9.7406L26.1076 24.6582C26.0419 25.1645 25.805 25.6287 25.4407 25.9652C25.0764 26.3018 24.6092 26.488 24.1251 26.4896H3.87507C3.39096 26.488 2.92371 26.3018 2.5594 25.9652C2.1951 25.6287 1.95828 25.1645 1.89257 24.6582L0.00881706 9.7406C-0.0100667 9.59149 0.00146266 9.43984 0.0426322 9.29582C0.0838017 9.1518 0.15366 9.01873 0.247526 8.90553C0.341392 8.79233 0.457097 8.70161 0.586886 8.63947C0.716674 8.57732 0.857549 8.54517 1.00007 8.54518H6.54632L13.2501 0.460948C13.3439 0.34863 13.4593 0.258675 13.5886 0.197059C13.7179 0.135443 13.8582 0.103577 14.0001 0.103577C14.1419 0.103577 14.2822 0.135443 14.4115 0.197059C14.5408 0.258675 14.6562 0.34863 14.7501 0.460948L21.4538 8.54518H27.0001C27.1426 8.54517 27.2835 8.57732 27.4132 8.63947C27.543 8.70161 27.6587 8.79233 27.7526 8.90553C27.8465 9.01873 27.9163 9.1518 27.9575 9.29582C27.9987 9.43984 28.0102 9.59149 27.9913 9.7406ZM9.20382 8.54518H18.7963L14.0001 2.75942L9.20382 8.54518ZM25.8576 10.6563H2.14257L3.87507 24.3785H24.1251L25.8576 10.6563Z" fill="white"/>
</svg>
